<svg xmlns="http://www.w3.org/2000/svg" width="36" height="36" viewBox="0 0 36 36"><g><g><g><path fill="#fbbd00" d="M8.379 17.875c0-1.771.488-3.43 1.336-4.851V6.998H3.688A17.74 17.74 0 0 0 0 17.875a17.74 17.74 0 0 0 3.688 10.878h6.027v-6.027a9.438 9.438 0 0 1-1.336-4.85z"/></g><g><path fill="#0f9d58" d="M17.875 27.371l-4.19 4.19 4.19 4.19a17.74 17.74 0 0 0 10.878-3.689v-6.02h-6.02a9.495 9.495 0 0 1-4.858 1.33z"/></g><g><path fill="#31aa52" d="M9.715 22.726l-6.027 6.027c.474.615.99 1.204 1.548 1.762a17.758 17.758 0 0 0 12.64 5.235v-8.379a9.5 9.5 0 0 1-8.161-4.645z"/></g><g><path fill="#3c79e6" d="M35.75 17.875a18.03 18.03 0 0 0-.292-3.238l-.157-.859H17.875v8.38h8.48a9.453 9.453 0 0 1-3.622 3.884l6.02 6.02c.615-.473 1.204-.99 1.762-1.547a17.758 17.758 0 0 0 5.235-12.64z"/></g><g><path fill="#cf2d48" d="M24.59 11.16l.74.74 5.926-5.924-.741-.74A17.758 17.758 0 0 0 17.875 0l-4.19 4.19 4.19 4.189c2.537 0 4.921.988 6.715 2.781z"/></g><g><path fill="#eb4132" d="M17.875 8.379V0c-4.774 0-9.263 1.86-12.64 5.235a18.145 18.145 0 0 0-1.547 1.762l6.027 6.027a9.5 9.5 0 0 1 8.16-4.645z"/></g></g></g></svg>