<svg xmlns="http://www.w3.org/2000/svg" width="285" height="84.304" viewBox="95.37 28.211 285 84.304"><g fill="#707070"><path d="M202.587 72.924h-2.085v-1.386h3.627v.748c0 1.308-.382 2.359-1.144 3.152-.764.794-1.737 1.191-2.92 1.191-1.297 0-2.371-.459-3.222-1.377-.851-.919-1.277-2.104-1.277-3.558 0-1.453.423-2.639 1.269-3.558.846-.918 1.903-1.377 3.168-1.377 1.069 0 1.944.28 2.623.84.679.561 1.113 1.329 1.299 2.305h-1.619c-.207-.551-.491-.968-.849-1.254-.358-.285-.843-.428-1.455-.428-.841 0-1.517.325-2.032.973-.514.649-.77 1.481-.77 2.499 0 1.027.259 1.868.778 2.522.518.654 1.215.982 2.085.982.706 0 1.277-.205 1.713-.616.438-.41.707-.962.811-1.658M216.24 68.152c.831.929 1.245 2.11 1.245 3.542s-.414 2.613-1.245 3.542c-.83.929-1.889 1.393-3.176 1.393s-2.343-.464-3.168-1.393c-.826-.929-1.238-2.11-1.238-3.542s.412-2.613 1.238-3.542c.825-.929 1.882-1.393 3.168-1.393 1.287-.001 2.346.464 3.176 1.393m-1.16 6.049c.514-.654.77-1.489.77-2.506s-.256-1.852-.77-2.506c-.514-.654-1.186-.982-2.016-.982-.831 0-1.5.325-2.009.973-.509.649-.763 1.487-.763 2.515s.253 1.866.763 2.514c.508.649 1.178.973 2.009.973s1.502-.328 2.016-.981M221.783 73.827h1.651c.301.956 1.021 1.432 2.164 1.432.56 0 1.008-.127 1.346-.381.337-.254.507-.599.507-1.035 0-.343-.107-.615-.319-.818-.213-.203-.569-.361-1.066-.475l-1.62-.389c-1.588-.374-2.382-1.23-2.382-2.57 0-.819.304-1.497.911-2.03.608-.536 1.389-.802 2.344-.802 1.006 0 1.818.237 2.435.708.618.473 1.015 1.119 1.192 1.938h-1.62c-.301-.851-.966-1.277-1.993-1.277-.518 0-.936.122-1.252.366a1.15 1.15 0 00-.475.957c0 .634.42 1.049 1.261 1.246l1.666.389c.778.177 1.385.488 1.821.935.436.446.654 1.017.654 1.713 0 .882-.317 1.586-.949 2.109-.634.525-1.453.786-2.46.786-1.018 0-1.866-.246-2.545-.739-.682-.492-1.105-1.18-1.271-2.063m3.005-7.8l-1.464-1.931h1.386l.794.935.793-.935h1.386l-1.464 1.931h-1.431zM233.46 68.347v-1.432h7.972v1.432h-3.176v8.127h-1.62v-8.127zM249.326 66.915h1.557l3.675 9.559h-1.651l-.98-2.647h-3.659l-.982 2.647h-1.635l3.675-9.559zm.762 1.977l-1.307 3.534h2.616l-1.309-3.534zM265.837 75.61c-.69.679-1.622 1.019-2.795 1.019-1.173 0-2.104-.34-2.795-1.019-.69-.68-1.035-1.664-1.035-2.95v-5.745h1.619v5.573c0 1.797.737 2.695 2.211 2.695 1.474 0 2.212-.898 2.212-2.695v-5.573h1.618v5.76c0 1.276-.346 2.255-1.035 2.935M271.683 68.347v-1.432h7.971v1.432h-3.176v8.127h-1.62v-8.127zM291.688 68.152c.831.929 1.245 2.11 1.245 3.542s-.414 2.613-1.245 3.542c-.83.929-1.888 1.393-3.176 1.393-1.287 0-2.343-.464-3.168-1.393-.826-.929-1.238-2.11-1.238-3.542s.412-2.613 1.238-3.542c.825-.929 1.882-1.393 3.168-1.393 1.288-.001 2.346.464 3.176 1.393m-1.159 6.049c.514-.654.77-1.489.77-2.506s-.256-1.852-.77-2.506c-.514-.654-1.186-.982-2.016-.982-.831 0-1.5.325-2.009.973-.509.649-.763 1.487-.763 2.515s.253 1.866.763 2.514c.508.649 1.177.973 2.009.973.829 0 1.501-.328 2.016-.981M309.92 66.915v4.577l3.971-4.577h2.04l-3.862 4.342 4.001 5.217h-2.023l-3.145-4.095-.982 1.121v2.974h-1.619v-9.559zM320.803 76.474v-9.56h1.619v8.112h4.593v1.448zM332.105 66.915h1.62v9.559h-1.62zM346.974 66.915v9.559h-1.246l-4.889-6.96v6.96h-1.557v-9.559h1.526l4.609 6.633v-6.633zM352.532 66.915h1.62v9.559h-1.62zM361.329 66.915v4.577l3.97-4.577h2.04l-3.861 4.342 4.001 5.217h-2.024l-3.146-4.095-.98 1.121v2.974h-1.62v-9.559zM375.138 66.915h1.556l3.675 9.559h-1.651l-.981-2.647h-3.658l-.982 2.647h-1.635l3.676-9.559zm.763 1.977l-1.308 3.534h2.617l-1.309-3.534zM95.37 112.515h84.304V28.211H95.37v84.304zm63.699-21.076L146.591 78.96l-8.158 8.157a14.332 14.332 0 01-10.201 4.225c-3.854 0-7.476-1.5-10.202-4.225l-1.021-1.022 2.043-2.044 1.022 1.022a11.46 11.46 0 008.157 3.379c3.081 0 5.978-1.2 8.157-3.379l8.157-8.157 2.044-2.044 2.043 2.044 12.479 12.479-2.042 2.044zm-20.636-17.303a14.332 14.332 0 01-10.201 4.225 14.338 14.338 0 01-10.202-4.225 14.332 14.332 0 01-4.225-10.201c0-3.854 1.501-7.476 4.225-10.202a14.332 14.332 0 0110.202-4.225c3.853 0 7.476 1.501 10.201 4.225l3.711 3.711-2.044 2.044-3.711-3.711a11.46 11.46 0 00-8.157-3.379c-3.082 0-5.978 1.2-8.158 3.379a11.46 11.46 0 00-3.379 8.157c0 3.081 1.2 5.978 3.379 8.157a11.461 11.461 0 008.158 3.379c3.081 0 5.978-1.201 8.157-3.379l2.967-2.967 19.838-19.838 2.044 2.044-22.805 22.806z"/></g></svg>
