<svg xmlns="http://www.w3.org/2000/svg" width="16" height="16" viewBox="0 0 16 16"><g><g><path fill="#fff" d="M7.14 1.38a5.768 5.768 0 0 1 5.763 5.761c0 1.398-.5 2.68-1.332 3.68l3.694 3.668a.549.549 0 0 1-.774.779l-3.698-3.674a5.735 5.735 0 0 1-3.652 1.309 5.765 5.765 0 0 1-2.821-.737.549.549 0 1 1 .538-.956 4.665 4.665 0 0 0 6.947-4.069 4.67 4.67 0 0 0-4.664-4.664 4.67 4.67 0 0 0-4.055 6.971.549.549 0 0 1-.953.544A5.763 5.763 0 0 1 7.14 1.379z"/><path fill="none" stroke="#fff" stroke-miterlimit="20" stroke-width=".4" d="M7.14 1.38a5.768 5.768 0 0 1 5.763 5.761c0 1.398-.5 2.68-1.332 3.68l3.694 3.668a.549.549 0 0 1-.774.779l-3.698-3.674a5.735 5.735 0 0 1-3.652 1.309 5.765 5.765 0 0 1-2.821-.737.549.549 0 1 1 .538-.956 4.665 4.665 0 0 0 6.947-4.069 4.67 4.67 0 0 0-4.664-4.664 4.67 4.67 0 0 0-4.055 6.971.549.549 0 0 1-.953.544A5.763 5.763 0 0 1 7.14 1.379z"/></g></g></svg>